<svg width="128" height="128" viewBox="0 0 128 128" fill="none" xmlns="http://www.w3.org/2000/svg">
<rect width="128" height="128" rx="24" fill="url(#paint0_linear_140_247)"/>
<path fill-rule="evenodd" clip-rule="evenodd" d="M33.999 94.001V106.539H28.0313C24.4 106.539 21.4546 103.594 21.4609 99.9688V94.001H33.999ZM49.4385 21.4609C51.5789 21.4609 53.6563 21.7128 55.6582 22.166C68.0983 24.9988 77.416 36.1475 77.416 49.4365V50.582H78.5615C91.8514 50.582 103.001 59.8985 105.834 72.3438C106.294 74.3455 106.539 76.4295 106.539 78.5635C106.539 80.7038 106.287 82.7814 105.834 84.7832C103.001 97.2224 91.8515 106.539 78.5615 106.539H43.2246V94.1064H78.5615C84.9201 94.1064 90.391 90.2663 92.7959 84.7832C93.6332 82.8758 94.1055 80.773 94.1055 78.5635C94.1054 76.3477 93.6332 74.2511 92.7959 72.3438C90.3909 66.8609 84.9199 63.0215 78.5615 63.0215H64.9824V49.4424C64.9824 43.0844 61.1416 37.6137 55.6582 35.209C53.7508 34.3718 51.6481 33.8994 49.4385 33.8994C47.2226 33.8994 45.1262 34.3719 43.2188 35.209C37.7353 37.6137 33.8946 43.0844 33.8945 49.4424V84.7773H21.4609V49.4365C21.4609 36.1475 30.7787 24.9988 43.2188 22.166C45.2206 21.7128 47.2981 21.4609 49.4385 21.4609ZM49.4834 44.0732C52.9227 44.0924 55.6484 46.9861 55.6484 50.4141V60.749H55.6426V72.3926H78.2363C81.6759 72.3926 84.585 75.1099 84.5977 78.5381V78.6768C84.5785 82.1047 81.6757 84.8223 78.2363 84.8223H43.1777V50.4141C43.1778 46.9861 45.9044 44.086 49.3438 44.0732H49.4834Z" fill="white"/>
<defs>
<linearGradient id="paint0_linear_140_247" x1="0" y1="128" x2="128" y2="0" gradientUnits="userSpaceOnUse">
<stop stop-color="#01C3FF"/>
<stop offset="1" stop-color="#0156FF"/>
</linearGradient>
</defs>
</svg>
