<svg width="48" height="27" viewBox="0 0 48 27" fill="none" xmlns="http://www.w3.org/2000/svg">
<path fill-rule="evenodd" clip-rule="evenodd" d="M40.9095 2.39277C41.2271 2.08048 41.0046 1.54206 40.5596 1.54206H39.3475C39.0623 1.54206 38.7858 1.65405 38.5849 1.85434L32.5701 7.8115C32.4793 7.90627 32.3518 7.95795 32.2157 7.95795L27.5945 7.95149C27.1494 7.95149 26.9312 7.41737 27.2445 7.10509L32.0019 2.39708C32.3194 2.08479 32.0969 1.54636 31.6519 1.54636H30.2735C29.9883 1.54636 29.7117 1.65836 29.5108 1.85865L23.496 7.81581C23.4053 7.91057 23.2778 7.96226 23.1417 7.96226L19.0497 7.9558C18.6047 7.9558 18.3821 7.42168 18.6954 7.10939L23.455 2.40139C23.7682 2.0891 23.55 1.55067 23.105 1.55067H21.8864C21.5991 1.55067 21.3247 1.66266 21.1195 1.86296L14.1929 8.72037C13.7306 9.17911 14.0547 9.96737 14.7115 9.96737H39.0429C39.812 9.96737 40.5315 10.3464 40.9657 10.9775L42.692 13.4865L44.012 15.4033C44.6494 16.3294 44.5327 17.5786 43.7355 18.3711C41.2142 20.8737 38.6929 23.3764 36.1716 25.8747C35.4608 26.5789 34.4994 26.9752 33.4969 26.9752H0.968582C0.106547 26.9752 -0.32555 25.935 0.288029 25.3276L6.0695 19.6009C6.4519 19.2219 6.97043 19.0108 7.51055 19.0108L11.4945 19.0151C11.9396 19.0151 12.1578 19.5492 11.8445 19.8615L7.08709 24.5717C6.76949 24.884 6.99203 25.4224 7.43709 25.4224H8.64912C8.93431 25.4224 9.21085 25.3104 9.41177 25.1101L15.4266 19.1572C15.5173 19.0625 15.6448 19.0108 15.7809 19.0108L20.4022 19.0151C20.8472 19.0151 21.0655 19.5492 20.7522 19.8615L15.9948 24.5717C15.6772 24.884 15.8997 25.4224 16.3448 25.4224H17.7232C18.0105 25.4224 18.2849 25.3104 18.4858 25.1101L24.5006 19.1572C24.5957 19.0625 24.7188 19.0108 24.855 19.0108L28.9469 19.0151C29.392 19.0151 29.6145 19.5492 29.3012 19.8615L24.5417 24.5717C24.2284 24.884 24.4509 25.4224 24.8917 25.4224H26.1102C26.3975 25.4224 26.6719 25.3104 26.8772 25.1101L33.8037 18.2527C34.266 17.7939 33.942 17.0057 33.2852 17.0057H8.95375C8.18462 17.0057 7.46518 16.6266 7.03092 15.9956L5.30468 13.4908L3.98463 11.5719C3.34728 10.6458 3.46395 9.39663 4.26333 8.60191C6.03277 6.84664 7.80005 5.09137 9.56949 3.33825L11.8272 1.10055C12.538 0.396282 13.4994 0 14.5019 0H47.0324C47.8944 0 48.3243 1.04024 47.7129 1.64543L41.9293 7.3743C41.5469 7.75335 41.0284 7.96657 40.4883 7.96657L36.5043 7.96011C36.0592 7.96011 35.841 7.42599 36.1543 7.1137L40.9117 2.40569L40.9095 2.39277Z" fill="url(#paint0_linear_22_12513)"/>
<defs>
<linearGradient id="paint0_linear_22_12513" x1="1.02362" y1="16.3781" x2="40.7318" y2="2.14146" gradientUnits="userSpaceOnUse">
<stop stop-color="#0679FF"/>
<stop offset="1" stop-color="#6AAFFF"/>
</linearGradient>
</defs>
</svg>
